<svg xmlns="http://www.w3.org/2000/svg" viewBox="0 0 128 128">
  <defs>
    <clipPath id="circleClip">
      <circle cx="64" cy="64" r="60"/>
    </clipPath>
    <filter id="glow" x="-50%" y="-50%" width="200%" height="200%">
      <feGaussianBlur stdDeviation="2.2" result="blur"/>
      <feMerge>
        <feMergeNode in="blur"/>
        <feMergeNode in="SourceGraphic"/>
      </feMerge>
    </filter>
    <linearGradient id="s1" x1="0" y1="0" x2="0" y2="1">
      <stop offset="0%" stop-color="#fb923c"/>
      <stop offset="100%" stop-color="#fde047"/>
    </linearGradient>
    <linearGradient id="s2" x1="0" y1="0" x2="0" y2="1">
      <stop offset="0%" stop-color="#fbbf24"/>
      <stop offset="100%" stop-color="#fef3c7"/>
    </linearGradient>
    <linearGradient id="s3" x1="0" y1="0" x2="0" y2="1">
      <stop offset="0%" stop-color="#fde047"/>
      <stop offset="100%" stop-color="#fef3c7"/>
    </linearGradient>
  </defs>
  <circle cx="64" cy="64" r="60" fill="#1a1a1a"/>
  <circle cx="64" cy="64" r="60" fill="none" stroke="#fde047" stroke-width="1.5" opacity="0.65"/>
  <g clip-path="url(#circleClip)" filter="url(#glow)">
    <path d="M22,-10 Q30,58 76,138 L90,138 Q42,58 32,-10 Z" fill="url(#s1)"/>
    <path d="M42,-10 Q48,58 92,138 L105,138 Q60,58 52,-10 Z" fill="url(#s2)"/>
    <path d="M62,-10 Q66,58 108,138 L120,138 Q78,58 72,-10 Z" fill="url(#s3)"/>
  </g>
</svg>
