<svg xmlns="http://www.w3.org/2000/svg" viewBox="0 0 128 128">
  <defs>
    <clipPath id="circleClip">
      <circle cx="64" cy="64" r="60"/>
    </clipPath>
    <filter id="glow" x="-50%" y="-50%" width="200%" height="200%">
      <feGaussianBlur stdDeviation="3" result="blur"/>
      <feMerge>
        <feMergeNode in="blur"/>
        <feMergeNode in="SourceGraphic"/>
      </feMerge>
    </filter>
    <linearGradient id="s1" x1="0" y1="0" x2="0" y2="1">
      <stop offset="0%" stop-color="#fde047"/>
      <stop offset="100%" stop-color="#fef3c7"/>
    </linearGradient>
    <linearGradient id="s2" x1="0" y1="0" x2="0" y2="1">
      <stop offset="0%" stop-color="#fde047"/>
      <stop offset="100%" stop-color="#fef3c7"/>
    </linearGradient>
    <linearGradient id="s3" x1="0" y1="0" x2="0" y2="1">
      <stop offset="0%" stop-color="#fef3c7"/>
      <stop offset="100%" stop-color="#fef3c7"/>
    </linearGradient>
  </defs>
  <circle cx="64" cy="64" r="60" fill="#1a1a1a"/>
  <circle cx="64" cy="64" r="60" fill="none" stroke="#fef3c7" stroke-width="1.5" opacity="0.8"/>
  <g clip-path="url(#circleClip)" filter="url(#glow)">
    <path d="M21,-10 Q29,58 76,138 L91,138 Q43,58 33,-10 Z" fill="url(#s1)"/>
    <path d="M41,-10 Q47,58 92,138 L106,138 Q61,58 53,-10 Z" fill="url(#s2)"/>
    <path d="M61,-10 Q65,58 108,138 L121,138 Q79,58 73,-10 Z" fill="url(#s3)"/>
  </g>
</svg>
