<svg xmlns="http://www.w3.org/2000/svg" viewBox="0 0 128 128">
  <defs>
    <linearGradient id="flame-1" x1="0%" y1="100%" x2="0%" y2="0%">
      <stop offset="0%" style="stop-color:#ea580c"/>
      <stop offset="50%" style="stop-color:#f97316"/>
      <stop offset="100%" style="stop-color:#fb923c"/>
    </linearGradient>
    <linearGradient id="innerFlame-1" x1="0%" y1="100%" x2="0%" y2="0%">
      <stop offset="0%" style="stop-color:#fb923c"/>
      <stop offset="100%" style="stop-color:#fbbf24"/>
    </linearGradient>
    <!-- 85% flame → glow 2 (SMALLEST) -->
    <filter id="glowFlame" x="-50%" y="-50%" width="200%" height="200%">
      <feGaussianBlur stdDeviation="2" result="coloredBlur"/>
      <feMerge><feMergeNode in="coloredBlur"/><feMergeNode in="SourceGraphic"/></feMerge>
    </filter>
    <filter id="glowRing" x="-50%" y="-50%" width="200%" height="200%">
      <feGaussianBlur stdDeviation="2" result="coloredBlur"/>
      <feMerge><feMergeNode in="coloredBlur"/><feMergeNode in="SourceGraphic"/></feMerge>
    </filter>
  </defs>
  <circle cx="64" cy="64" r="60" fill="#1a1a1a"/>
  <circle cx="64" cy="64" r="62" fill="none" stroke="#fb923c" stroke-width="2" opacity="0.6" filter="url(#glowRing)"/>
  <g transform="translate(64, 116) scale(1, 0.85) translate(-64, -116)" filter="url(#glowFlame)">
    <path d="M64 16 C40 40, 28 60, 28 80 C28 100, 44 116, 64 116 C84 116, 100 100, 100 80 C100 60, 88 40, 64 16 Z" fill="url(#flame-1)"/>
    <path d="M64 48 C52 60, 44 72, 44 84 C44 96, 52 104, 64 104 C76 104, 84 96, 84 84 C84 72, 76 60, 64 48 Z" fill="url(#innerFlame-1)"/>
  </g>
</svg>
