<svg xmlns="http://www.w3.org/2000/svg" viewBox="0 0 128 128">
  <!-- 1. Background (Charcoal) -->
  <circle cx="64" cy="64" r="62" fill="#111111" />
  
  <clipPath id="circle-clip">
    <circle cx="64" cy="64" r="62" />
  </clipPath>
  
  <!-- 2. Strings (Middle) -->
  <g clip-path="url(#circle-clip)">
    <g transform="translate(64, 64) rotate(-32) translate(-64, -64)">
      <path d="M38 -25 L45 -25 Q 47 64 51 153 L38 153 Q 35 64 38 -25 Z" fill="#b45309" />
      <path d="M54 -25 L61 -25 Q 64 64 69 153 L56 153 Q 52 64 54 -25 Z" fill="#d97706" />
      <path d="M70 -25 L77 -25 Q 81 64 87 153 L74 153 Q 69 64 70 -25 Z" fill="#f59e0b" />
      <path d="M86 -25 L93 -25 Q 98 64 105 153 L92 153 Q 86 64 86 -25 Z" fill="#fbbf24" />
      <path d="M102 -25 L109 -25 Q 115 64 123 153 L110 153 Q 103 64 102 -25 Z" fill="#fcd34d" />
    </g>
  </g>

  <!-- 3. Top Ring -->
  <circle cx="64" cy="64" r="62" fill="none" stroke="#222" stroke-width="3" />
</svg>
