<svg width="1280" height="640" viewBox="0 0 1280 640" fill="none" xmlns="http://www.w3.org/2000/svg">
  <rect width="1280" height="640" fill="#0f172a"/>
  <defs>
    <linearGradient id="sp-flame" x1="0%" y1="100%" x2="0%" y2="0%">
      <stop offset="0%" style="stop-color:#f97316"/>
      <stop offset="50%" style="stop-color:#fb923c"/>
      <stop offset="100%" style="stop-color:#fbbf24"/>
    </linearGradient>
    <linearGradient id="sp-inner" x1="0%" y1="100%" x2="0%" y2="0%">
      <stop offset="0%" style="stop-color:#fbbf24"/>
      <stop offset="100%" style="stop-color:#fef3c7"/>
    </linearGradient>
  </defs>
  <!-- Flame logo centered -->
  <g transform="translate(540, 80) scale(1.5)">
    <circle cx="64" cy="64" r="64" fill="#1e293b"/>
    <path d="M64 16 C40 40, 28 60, 28 80 C28 100, 44 116, 64 116 C84 116, 100 100, 100 80 C100 60, 88 40, 64 16 Z" fill="url(#sp-flame)"/>
    <path d="M64 48 C52 60, 44 72, 44 84 C44 96, 52 104, 64 104 C76 104, 84 96, 84 84 C84 72, 76 60, 64 48 Z" fill="url(#sp-inner)"/>
  </g>
  <text x="640" y="380" font-family="-apple-system, BlinkMacSystemFont, 'Segoe UI', Helvetica, Arial, sans-serif" font-size="80" font-weight="700" fill="#ffffff" text-anchor="middle">KaBOOM!</text>
  <text x="640" y="430" font-family="-apple-system, BlinkMacSystemFont, 'Segoe UI', Helvetica, Arial, sans-serif" font-size="28" font-weight="400" fill="#f97316" text-anchor="middle">QA-first AI browser devtools</text>
  <text x="640" y="480" font-family="-apple-system, BlinkMacSystemFont, 'Segoe UI', Helvetica, Arial, sans-serif" font-size="22" font-weight="300" fill="#94a3b8" text-anchor="middle">Browser DevTools for AI coding assistants via MCP</text>
  <!-- Flow pills -->
  <g transform="translate(310, 530)">
    <rect x="0" y="0" width="110" height="38" rx="19" fill="none" stroke="#334155" stroke-width="1"/>
    <text x="55" y="25" font-family="-apple-system, BlinkMacSystemFont, 'Segoe UI', Helvetica, Arial, sans-serif" font-size="14" fill="#94a3b8" text-anchor="middle">Browser</text>
    <path d="M124 19 L138 19 M133 13 L140 19 L133 25" stroke="#475569" stroke-width="1.5" fill="none" stroke-linecap="round" stroke-linejoin="round"/>
    <rect x="156" y="0" width="120" height="38" rx="19" fill="none" stroke="#334155" stroke-width="1"/>
    <text x="216" y="25" font-family="-apple-system, BlinkMacSystemFont, 'Segoe UI', Helvetica, Arial, sans-serif" font-size="14" fill="#94a3b8" text-anchor="middle">Extension</text>
    <path d="M290 19 L304 19 M299 13 L306 19 L299 25" stroke="#475569" stroke-width="1.5" fill="none" stroke-linecap="round" stroke-linejoin="round"/>
    <rect x="322" y="0" width="130" height="38" rx="19" fill="none" stroke="#334155" stroke-width="1"/>
    <text x="387" y="25" font-family="-apple-system, BlinkMacSystemFont, 'Segoe UI', Helvetica, Arial, sans-serif" font-size="14" fill="#94a3b8" text-anchor="middle">Local Server</text>
    <path d="M466 19 L480 19 M475 13 L482 19 L475 25" stroke="#475569" stroke-width="1.5" fill="none" stroke-linecap="round" stroke-linejoin="round"/>
    <rect x="498" y="0" width="90" height="38" rx="19" fill="#f97316" fill-opacity="0.15" stroke="#f97316" stroke-width="1"/>
    <text x="543" y="25" font-family="-apple-system, BlinkMacSystemFont, 'Segoe UI', Helvetica, Arial, sans-serif" font-size="14" fill="#fb923c" text-anchor="middle">AI</text>
  </g>
</svg>
