<svg xmlns="http://www.w3.org/2000/svg" viewBox="0 0 128 128">
  <defs>
    <linearGradient id="d1" x1="0" y1="0" x2="128" y2="128" gradientUnits="userSpaceOnUse">
      <stop offset="0%" style="stop-color:#f97316"/>
      <stop offset="100%" style="stop-color:#fb923c"/>
    </linearGradient>
    <linearGradient id="d2" x1="0" y1="0" x2="128" y2="128" gradientUnits="userSpaceOnUse">
      <stop offset="0%" style="stop-color:#fb923c"/>
      <stop offset="100%" style="stop-color:#fbbf24"/>
    </linearGradient>
    <linearGradient id="d3" x1="0" y1="0" x2="128" y2="128" gradientUnits="userSpaceOnUse">
      <stop offset="0%" style="stop-color:#fbbf24"/>
      <stop offset="100%" style="stop-color:#fde047"/>
    </linearGradient>
    <clipPath id="hClip">
      <polygon points="64,5 117,34.5 117,93.5 64,123 11,93.5 11,34.5"/>
    </clipPath>
    <filter id="gl" x="-50%" y="-50%" width="200%" height="200%">
      <feGaussianBlur stdDeviation="1.5" result="b"/>
      <feMerge><feMergeNode in="b"/><feMergeNode in="SourceGraphic"/></feMerge>
    </filter>
    <filter id="hg" x="-20%" y="-20%" width="140%" height="140%">
      <feGaussianBlur stdDeviation="3" result="b"/>
      <feMerge><feMergeNode in="b"/><feMergeNode in="SourceGraphic"/></feMerge>
    </filter>
  </defs>
  <polygon points="64,5 117,34.5 117,93.5 64,123 11,93.5 11,34.5" fill="#1a1a1a"/>
  <polygon points="64,5 117,34.5 117,93.5 64,123 11,93.5 11,34.5" fill="none" stroke="#f97316" stroke-width="1" opacity="0.3" filter="url(#hg)"/>
  <g clip-path="url(#hClip)" filter="url(#gl)">
    <line x1="28" y1="16" x2="60" y2="112" stroke="url(#d1)" stroke-width="12" stroke-linecap="butt">
      <animateTransform attributeName="transform" type="translate" values="0,-120;0,4;0,-2;0,1;0,0" dur="0.8s" begin="0s" fill="freeze" keyTimes="0;0.4;0.6;0.8;1" keySplines="0.33 0 0.67 1;0.33 0 0.67 1;0.33 0 0.67 1;0.33 0 0.67 1" calcMode="spline"/>
    </line>
    <line x1="50" y1="16" x2="82" y2="112" stroke="url(#d2)" stroke-width="9" stroke-linecap="butt">
      <animateTransform attributeName="transform" type="translate" values="0,-120;0,3;0,-1.5;0,0.5;0,0" dur="0.8s" begin="0.15s" fill="freeze" keyTimes="0;0.4;0.6;0.8;1" keySplines="0.33 0 0.67 1;0.33 0 0.67 1;0.33 0 0.67 1;0.33 0 0.67 1" calcMode="spline"/>
    </line>
    <line x1="70" y1="16" x2="102" y2="112" stroke="url(#d3)" stroke-width="6" stroke-linecap="butt">
      <animateTransform attributeName="transform" type="translate" values="0,-120;0,2;0,-1;0,0" dur="0.7s" begin="0.3s" fill="freeze" keyTimes="0;0.45;0.7;1" keySplines="0.33 0 0.67 1;0.33 0 0.67 1;0.33 0 0.67 1" calcMode="spline"/>
    </line>
  </g>
</svg>
