<svg xmlns="http://www.w3.org/2000/svg" viewBox="0 0 128 128">
  <defs>
    <linearGradient id="f1" x1="0" y1="20" x2="0" y2="108" gradientUnits="userSpaceOnUse">
      <stop offset="0%" style="stop-color:#f97316"/>
      <stop offset="50%" style="stop-color:#fbbf24"/>
      <stop offset="100%" style="stop-color:#fde047"/>
    </linearGradient>
    <filter id="glF" x="-50%" y="-50%" width="200%" height="200%">
      <feGaussianBlur stdDeviation="2.5" result="b"/>
      <feMerge><feMergeNode in="b"/><feMergeNode in="SourceGraphic"/></feMerge>
    </filter>
  </defs>
  <circle cx="64" cy="64" r="60" fill="#1a1a1a"/>
  <circle cx="64" cy="64" r="60" fill="none" stroke="#2a2a2a" stroke-width="1.5"/>
  <!-- Stylized S made of three parallel curves -->
  <g filter="url(#glF)">
    <path d="M82,22 C82,22 30,30 30,58 C30,78 98,70 98,90 C98,108 46,106 46,106" fill="none" stroke="#f97316" stroke-width="5" stroke-linecap="butt"/>
    <path d="M86,28 C86,28 38,35 38,58 C38,75 102,68 102,88 C102,103 52,102 52,102" fill="none" stroke="#fbbf24" stroke-width="3" stroke-linecap="butt"/>
    <path d="M90,34 C90,34 46,40 46,58 C46,72 106,66 106,86 C106,98 58,98 58,98" fill="none" stroke="#fde047" stroke-width="1.5" stroke-linecap="butt"/>
  </g>
</svg>
