<svg width="1280" height="640" viewBox="0 0 1280 640" fill="none" xmlns="http://www.w3.org/2000/svg">
  <!-- Background -->
  <rect width="1280" height="640" fill="#fcfaf2"/>

  <!-- Subtle radial glow behind flame -->
  <defs>
    <radialGradient id="glow" cx="50%" cy="45%" r="35%">
      <stop offset="0%" style="stop-color:#f97316;stop-opacity:0.05"/>
      <stop offset="100%" style="stop-color:#fcfaf2;stop-opacity:0"/>
    </radialGradient>
    <linearGradient id="social-flame" x1="0%" y1="100%" x2="0%" y2="0%">
      <stop offset="0%" style="stop-color:#f97316"/>
      <stop offset="50%" style="stop-color:#fb923c"/>
      <stop offset="100%" style="stop-color:#fbbf24"/>
    </linearGradient>
    <linearGradient id="social-inner-flame" x1="0%" y1="100%" x2="0%" y2="0%">
      <stop offset="0%" style="stop-color:#fbbf24"/>
      <stop offset="100%" style="stop-color:#fef3c7"/>
    </linearGradient>
  </defs>

  <!-- Glow effect -->
  <rect width="1280" height="640" fill="url(#glow)"/>

  <!-- Kaboom logo (centered, scaled up) -->
  <g transform="translate(540, 100) scale(1.5)">
    <circle cx="64" cy="64" r="64" fill="#1a1a1a"/>
    <path d="M64 16 C40 40, 28 60, 28 80 C28 100, 44 116, 64 116 C84 116, 100 100, 100 80 C100 60, 88 40, 64 16 Z" fill="url(#social-flame)"/>
    <path d="M64 48 C52 60, 44 72, 44 84 C44 96, 52 104, 64 104 C76 104, 84 96, 84 84 C84 72, 76 60, 64 48 Z" fill="url(#social-inner-flame)"/>
  </g>

  <!-- Title -->
  <text x="640" y="380" font-family="-apple-system, BlinkMacSystemFont, 'Segoe UI', Helvetica, Arial, sans-serif" font-size="72" font-weight="600" fill="#302d2a" text-anchor="middle">KaBOOM!</text>

  <!-- Tagline -->
  <text x="640" y="430" font-family="-apple-system, BlinkMacSystemFont, 'Segoe UI', Helvetica, Arial, sans-serif" font-size="28" font-weight="400" fill="#6e7681" text-anchor="middle">Agentic Browser Devtools - rapid e2e web development</text>

  <!-- Description -->
  <text x="640" y="490" font-family="-apple-system, BlinkMacSystemFont, 'Segoe UI', Helvetica, Arial, sans-serif" font-size="22" font-weight="300" fill="#9ba3af" text-anchor="middle">Streams console logs, network errors, and exceptions to any MCP-compatible assistant</text>

  <!-- Flow pills -->
  <g transform="translate(310, 530)">
    <!-- Browser pill -->
    <rect x="0" y="0" width="120" height="40" rx="20" fill="#efede4" stroke="#dcdad2" stroke-width="1"/>
    <text x="60" y="26" font-family="-apple-system, BlinkMacSystemFont, 'Segoe UI', Helvetica, Arial, sans-serif" font-size="15" fill="#302d2a" text-anchor="middle">Browser</text>

    <!-- Arrow 1 -->
    <path d="M137 20 L151 20 M146 14 L153 20 L146 26" stroke="#dcdad2" stroke-width="1.5" fill="none" stroke-linecap="round" stroke-linejoin="round"/>

    <!-- Extension pill -->
    <rect x="170" y="0" width="130" height="40" rx="20" fill="#efede4" stroke="#dcdad2" stroke-width="1"/>
    <text x="235" y="26" font-family="-apple-system, BlinkMacSystemFont, 'Segoe UI', Helvetica, Arial, sans-serif" font-size="15" fill="#302d2a" text-anchor="middle">Extension</text>

    <!-- Arrow 2 -->
    <path d="M317 20 L331 20 M326 14 L333 20 L326 26" stroke="#dcdad2" stroke-width="1.5" fill="none" stroke-linecap="round" stroke-linejoin="round"/>

    <!-- Local Server pill -->
    <rect x="350" y="0" width="140" height="40" rx="20" fill="#efede4" stroke="#dcdad2" stroke-width="1"/>
    <text x="420" y="26" font-family="-apple-system, BlinkMacSystemFont, 'Segoe UI', Helvetica, Arial, sans-serif" font-size="15" fill="#302d2a" text-anchor="middle">Local Server</text>

    <!-- Arrow 3 -->
    <path d="M507 20 L521 20 M516 14 L523 20 L516 26" stroke="#dcdad2" stroke-width="1.5" fill="none" stroke-linecap="round" stroke-linejoin="round"/>

    <!-- AI pill (highlighted) -->
    <rect x="540" y="0" width="120" height="40" rx="20" fill="#fef3c7" stroke="#f97316" stroke-width="1"/>
    <text x="600" y="26" font-family="-apple-system, BlinkMacSystemFont, 'Segoe UI', Helvetica, Arial, sans-serif" font-size="15" fill="#b45309" text-anchor="middle">AI</text>
  </g>
</svg>
