<svg width="1280" height="640" viewBox="0 0 1280 640" fill="none" xmlns="http://www.w3.org/2000/svg">
  <!-- Background -->
  <rect width="1280" height="640" fill="#fcfaf2"/>

  <!-- Subtle radial glow behind flame -->
  <defs>
    <radialGradient id="glow" cx="50%" cy="45%" r="35%">
      <stop offset="0%" style="stop-color:#f97316;stop-opacity:0.05"/>
      <stop offset="100%" style="stop-color:#fcfaf2;stop-opacity:0"/>
    </radialGradient>
  </defs>

  <!-- Glow effect -->
  <rect width="1280" height="640" fill="url(#glow)"/>

  <!-- STRUM logo (centered, scaled up) -->
  <g transform="translate(540, 100) scale(1.5)">
    <g transform="translate(1.5, 1.5) scale(0.25)">
      <circle cx="250" cy="250" r="240" fill="#302d2a" />
      <clipPath id="cp-social">
        <circle cx="250" cy="250" r="240" />
      </clipPath>
      <g clip-path="url(#cp-social)">
        <g transform="translate(250, 250) rotate(-32) translate(-250, -250)">
          <path d="M150 -100 L178 -100 Q 185 250 202 600 L150 600 Q 140 250 150 -100 Z" fill="#b45309" />
          <path d="M212 -100 L240 -100 Q 252 250 272 600 L220 600 Q 205 250 212 -100 Z" fill="#d97706" />
          <path d="M274 -100 L302 -100 Q 318 250 342 600 L290 600 Q 272 250 274 -100 Z" fill="#f59e0b" />
          <path d="M336 -100 L364 -100 Q 385 250 412 600 L360 600 Q 338 250 336 -100 Z" fill="#fbbf24" />
          <path d="M398 -100 L426 -100 Q 452 250 482 600 L430 600 Q 405 250 398 -100 Z" fill="#fcd34d" />
        </g>
      </g>
      <circle cx="250" cy="250" r="240" fill="none" stroke="#222" stroke-width="12" />
    </g>
  </g>

  <!-- Title -->
  <text x="640" y="380" font-family="-apple-system, BlinkMacSystemFont, 'Segoe UI', Helvetica, Arial, sans-serif" font-size="72" font-weight="600" fill="#302d2a" text-anchor="middle">STRUM</text>

  <!-- Tagline -->
  <text x="640" y="430" font-family="-apple-system, BlinkMacSystemFont, 'Segoe UI', Helvetica, Arial, sans-serif" font-size="28" font-weight="400" fill="#6e7681" text-anchor="middle">Agentic Browser Devtools - rapid e2e web development</text>

  <!-- Description -->
  <text x="640" y="490" font-family="-apple-system, BlinkMacSystemFont, 'Segoe UI', Helvetica, Arial, sans-serif" font-size="22" font-weight="300" fill="#9ba3af" text-anchor="middle">Streams console logs, network errors, and exceptions to any MCP-compatible assistant</text>

  <!-- Flow pills -->
  <g transform="translate(310, 530)">
    <!-- Browser pill -->
    <rect x="0" y="0" width="120" height="40" rx="20" fill="#efede4" stroke="#dcdad2" stroke-width="1"/>
    <text x="60" y="26" font-family="-apple-system, BlinkMacSystemFont, 'Segoe UI', Helvetica, Arial, sans-serif" font-size="15" fill="#302d2a" text-anchor="middle">Browser</text>

    <!-- Arrow 1 -->
    <path d="M137 20 L151 20 M146 14 L153 20 L146 26" stroke="#dcdad2" stroke-width="1.5" fill="none" stroke-linecap="round" stroke-linejoin="round"/>

    <!-- Extension pill -->
    <rect x="170" y="0" width="130" height="40" rx="20" fill="#efede4" stroke="#dcdad2" stroke-width="1"/>
    <text x="235" y="26" font-family="-apple-system, BlinkMacSystemFont, 'Segoe UI', Helvetica, Arial, sans-serif" font-size="15" fill="#302d2a" text-anchor="middle">Extension</text>

    <!-- Arrow 2 -->
    <path d="M317 20 L331 20 M326 14 L333 20 L326 26" stroke="#dcdad2" stroke-width="1.5" fill="none" stroke-linecap="round" stroke-linejoin="round"/>

    <!-- Local Server pill -->
    <rect x="350" y="0" width="140" height="40" rx="20" fill="#efede4" stroke="#dcdad2" stroke-width="1"/>
    <text x="420" y="26" font-family="-apple-system, BlinkMacSystemFont, 'Segoe UI', Helvetica, Arial, sans-serif" font-size="15" fill="#302d2a" text-anchor="middle">Local Server</text>

    <!-- Arrow 3 -->
    <path d="M507 20 L521 20 M516 14 L523 20 L516 26" stroke="#dcdad2" stroke-width="1.5" fill="none" stroke-linecap="round" stroke-linejoin="round"/>

    <!-- AI pill (highlighted) -->
    <rect x="540" y="0" width="120" height="40" rx="20" fill="#fef3c7" stroke="#f97316" stroke-width="1"/>
    <text x="600" y="26" font-family="-apple-system, BlinkMacSystemFont, 'Segoe UI', Helvetica, Arial, sans-serif" font-size="15" fill="#b45309" text-anchor="middle">AI</text>
  </g>
</svg>
