<svg xmlns="http://www.w3.org/2000/svg" viewBox="0 0 128 128">
  <defs>
    <clipPath id="circleClip">
      <circle cx="64" cy="64" r="60"/>
    </clipPath>
    <filter id="glow" x="-50%" y="-50%" width="200%" height="200%">
      <feGaussianBlur stdDeviation="1.5" result="blur"/>
      <feMerge>
        <feMergeNode in="blur"/>
        <feMergeNode in="SourceGraphic"/>
      </feMerge>
    </filter>
    <linearGradient id="s1" x1="0" y1="0" x2="0" y2="1">
      <stop offset="0%" stop-color="#f97316"/>
      <stop offset="100%" stop-color="#fb923c"/>
    </linearGradient>
    <linearGradient id="s2" x1="0" y1="0" x2="0" y2="1">
      <stop offset="0%" stop-color="#fb923c"/>
      <stop offset="100%" stop-color="#fbbf24"/>
    </linearGradient>
    <linearGradient id="s3" x1="0" y1="0" x2="0" y2="1">
      <stop offset="0%" stop-color="#fbbf24"/>
      <stop offset="100%" stop-color="#fde047"/>
    </linearGradient>
  </defs>
  <circle cx="64" cy="64" r="60" fill="#1a1a1a"/>
  <circle cx="64" cy="64" r="60" fill="none" stroke="#fb923c" stroke-width="1.5" opacity="0.5"/>
  <g clip-path="url(#circleClip)" filter="url(#glow)">
    <path d="M24,-10 Q32,58 76,138 L88,138 Q40,58 30,-10 Z" fill="url(#s1)"/>
    <path d="M44,-10 Q50,58 92,138 L103,138 Q58,58 50,-10 Z" fill="url(#s2)"/>
    <path d="M64,-10 Q68,58 108,138 L118,138 Q76,58 70,-10 Z" fill="url(#s3)"/>
  </g>
</svg>
