<svg width="680" height="360" viewBox="0 0 680 360" fill="none" xmlns="http://www.w3.org/2000/svg" role="img" aria-label="SEO signal visualization">
  <defs>
    <linearGradient id="bg" x1="0" y1="0" x2="680" y2="360" gradientUnits="userSpaceOnUse">
      <stop stop-color="#F7F4EE"/>
      <stop offset="1" stop-color="#ECE8DF"/>
    </linearGradient>
    <linearGradient id="accent" x1="0" y1="0" x2="0" y2="1">
      <stop stop-color="#F39C12"/>
      <stop offset="1" stop-color="#CE4027"/>
    </linearGradient>
  </defs>
  <rect width="680" height="360" rx="22" fill="url(#bg)"/>
  <rect x="34" y="30" width="612" height="300" rx="18" fill="#FFFFFF" stroke="#D6D2C8"/>
  <rect x="58" y="58" width="332" height="14" rx="7" fill="#E7E3DA"/>
  <rect x="58" y="86" width="250" height="10" rx="5" fill="#EFEAE0"/>
  <rect x="58" y="108" width="288" height="10" rx="5" fill="#EFEAE0"/>

  <rect x="58" y="144" width="260" height="150" rx="12" fill="#F6F3ED" stroke="#DDD7CC"/>
  <path d="M84 252L136 226L188 241L240 188L292 202" stroke="url(#accent)" stroke-width="8" stroke-linecap="round" stroke-linejoin="round"/>
  <circle cx="136" cy="226" r="8" fill="#F39C12"/>
  <circle cx="240" cy="188" r="8" fill="#CE4027"/>

  <rect x="350" y="144" width="270" height="150" rx="12" fill="#0E1219"/>
  <rect x="374" y="168" width="126" height="12" rx="6" fill="#2F3B4B"/>
  <rect x="374" y="190" width="218" height="10" rx="5" fill="#1F2A39"/>
  <rect x="374" y="210" width="196" height="10" rx="5" fill="#1F2A39"/>
  <rect x="374" y="230" width="160" height="10" rx="5" fill="#1F2A39"/>
  <rect x="374" y="252" width="132" height="10" rx="5" fill="#1F2A39"/>

  <circle cx="544" cy="212" r="38" fill="none" stroke="url(#accent)" stroke-width="8"/>
  <path d="M570 238L600 268" stroke="url(#accent)" stroke-width="8" stroke-linecap="round"/>
</svg>
